<?xml version="1.0" encoding="UTF-8"?>
<svg version="1.1" xmlns="http://www.w3.org/2000/svg" width="512" height="512">
<path d="M0 0 C1.22558445 -0.00644889 2.45116891 -0.01289778 3.71389228 -0.0195421 C5.06562581 -0.01660012 6.41735893 -0.01346471 7.76909161 -0.01015663 C9.21153825 -0.01389447 10.65398287 -0.01849653 12.09642428 -0.02388728 C16.05606677 -0.03611616 20.01562477 -0.03585695 23.97528183 -0.03349853 C28.24738531 -0.03309033 32.5194617 -0.04412973 36.79155254 -0.05361366 C45.15982032 -0.07022391 53.52805991 -0.07572322 61.89634279 -0.07683842 C68.69866336 -0.07778886 75.50097464 -0.08189896 82.30329227 -0.08823967 C101.59039208 -0.10585198 120.87746962 -0.11507853 140.16457752 -0.11357872 C141.20426904 -0.11349881 142.24396056 -0.1134189 143.31515789 -0.11333656 C144.87659994 -0.11321392 144.87659994 -0.11321392 146.46958628 -0.1130888 C163.34079715 -0.11227586 180.21191876 -0.13141572 197.08310381 -0.1596133 C214.40756371 -0.18833991 231.73198006 -0.20215372 249.05646437 -0.20042574 C258.78235499 -0.19976178 268.50815202 -0.20525707 278.23402119 -0.22678185 C286.51464463 -0.24499068 294.79513205 -0.2493434 303.07576684 -0.235763 C307.29969954 -0.2292319 311.52337127 -0.22912116 315.74727917 -0.2464695 C319.6169048 -0.26219913 323.48606252 -0.25933802 327.35567673 -0.24190123 C328.75268939 -0.23883108 330.14973696 -0.24246442 331.54670844 -0.25362138 C340.12190253 -0.31755102 348.16815888 -0.16556278 354.69253379 6.03658736 C360.42269262 12.33379044 361.33206134 17.27006523 361.19967937 25.76898766 C360.50955517 32.12239913 357.48124864 35.92251296 352.88327312 40.13226891 C347.96332438 43.54611089 343.57420091 44.50662328 337.64154625 44.51453781 C336.4159618 44.5209867 335.19037734 44.5274356 333.92765397 44.53407991 C332.57592044 44.53113793 331.22418732 44.52800252 329.87245464 44.52469444 C328.430008 44.52843228 326.98756338 44.53303434 325.54512197 44.53842509 C321.58547948 44.55065398 317.62592148 44.55039476 313.66626441 44.54803634 C309.39416094 44.54762814 305.12208455 44.55866754 300.84999371 44.56815147 C292.48172593 44.58476173 284.11348634 44.59026103 275.74520346 44.59137623 C268.94288289 44.59232667 262.14057161 44.59643677 255.33825397 44.60277748 C236.05115417 44.62038979 216.76407663 44.62961634 197.47696873 44.62811653 C196.43727721 44.62803662 195.39758568 44.62795671 194.32638836 44.62787437 C193.28542699 44.62779261 192.24446562 44.62771085 191.17195997 44.62762661 C174.3007491 44.62681367 157.42962749 44.64595353 140.55844244 44.67415111 C123.23398254 44.70287773 105.90956619 44.71669153 88.58508188 44.71496356 C78.85919126 44.71429959 69.13339423 44.71979488 59.40752506 44.74131966 C51.12690162 44.75952849 42.8464142 44.76388121 34.56577941 44.75030081 C30.34184671 44.74376972 26.11817498 44.74365897 21.89426708 44.76100731 C18.02464145 44.77673694 14.15548373 44.77387583 10.28586952 44.75643905 C8.88885686 44.75336889 7.49180929 44.75700223 6.09483781 44.7681592 C-2.48035628 44.83208883 -10.52661263 44.68010059 -17.05098754 38.47795045 C-22.78114637 32.18074737 -23.69051509 27.24447258 -23.55813313 18.74555016 C-22.86800892 12.39213868 -19.83970239 8.59202485 -15.24172688 4.38226891 C-10.32177813 0.96842692 -5.93265466 0.00791453 0 0 Z " fill="#FC6E00" transform="translate(87.17922687530518,105.74273109436035)"/>
<path d="M0 0 C1.35798762 -0.00679667 1.35798762 -0.00679667 2.74340934 -0.01373065 C5.77175598 -0.02637335 8.79992276 -0.02475435 11.82829285 -0.02310181 C14.00174185 -0.02908713 16.17518873 -0.03589268 18.34863281 -0.04345703 C24.24953144 -0.06112376 30.15037205 -0.0658127 36.05129457 -0.0670886 C39.73896211 -0.06851037 43.42661491 -0.07278046 47.11427879 -0.07808304 C59.98217581 -0.0965855 72.8500314 -0.10475337 85.71794128 -0.10317993 C97.70811313 -0.10197846 109.69803803 -0.12308145 121.6881693 -0.15466726 C131.98644348 -0.18082834 142.28465887 -0.19154729 152.58296603 -0.19026911 C158.73183595 -0.18975944 164.88054591 -0.19544607 171.02938271 -0.21662521 C176.81359805 -0.23600458 182.59750078 -0.23613386 188.38172722 -0.22159195 C190.50169456 -0.21950241 192.62168145 -0.22421337 194.7416153 -0.23631287 C197.64182991 -0.2517905 200.54096999 -0.2424403 203.44116211 -0.22705078 C204.69138545 -0.24248147 204.69138545 -0.24248147 205.96686584 -0.25822389 C212.6156204 -0.18057315 218.84862267 1.38546526 223.80179912 6.04674399 C229.49317252 12.37808024 230.4225661 17.26601056 230.28996277 25.77914429 C229.59983857 32.13255576 226.57153203 35.93266959 221.97355652 40.14242554 C216.08517313 44.22824258 210.74781899 44.56038187 203.82211304 44.53485107 C202.46412542 44.54164774 202.46412542 44.54164774 201.0787037 44.54858172 C198.05035705 44.56122442 195.02219028 44.55960542 191.99382019 44.55795288 C189.82037119 44.5639382 187.64692431 44.57074376 185.47348022 44.57830811 C179.5725816 44.59597483 173.67174098 44.60066377 167.77081847 44.60193968 C164.08315093 44.60336145 160.39549813 44.60763154 156.70783424 44.61293411 C143.83993722 44.63143657 130.97208164 44.63960445 118.10417175 44.63803101 C106.11399991 44.63682953 94.12407501 44.65793253 82.13394374 44.68951833 C71.83566955 44.71567941 61.53745416 44.72639837 51.23914701 44.72512019 C45.09027708 44.72461051 38.94156712 44.73029714 32.79273033 44.75147629 C27.00851499 44.77085565 21.22461226 44.77098493 15.44038582 44.75644302 C13.32041848 44.75435348 11.20043158 44.75906444 9.08049774 44.77116394 C6.18028312 44.78664157 3.28114305 44.77729137 0.38095093 44.76190186 C-0.4525313 44.77218898 -1.28601353 44.78247611 -2.1447528 44.79307497 C-8.79350736 44.71542422 -15.02650963 43.14938581 -19.97968608 38.48810709 C-25.67105948 32.15677084 -26.60045306 27.26884051 -26.46784973 18.75570679 C-25.77772553 12.40229531 -22.74941899 8.60218148 -18.15144348 4.39242554 C-12.26306009 0.30660849 -6.92570595 -0.0255308 0 0 Z " fill="#FE9A00" transform="translate(90.08894348144531,233.73257446289063)"/>
<path d="M0 0 C1.10968643 -0.00511093 2.21937286 -0.01022186 3.36268616 -0.01548767 C7.02521176 -0.02936968 10.68754889 -0.02842785 14.35009766 -0.02612305 C16.90068634 -0.03001084 19.45127437 -0.03434568 22.00186157 -0.03910828 C27.34647996 -0.04656759 32.69102941 -0.04642003 38.03564453 -0.04101562 C44.19890366 -0.03497888 50.36193432 -0.04728294 56.52515447 -0.06858569 C62.47106232 -0.08837586 68.41689986 -0.09136945 74.36284256 -0.08785057 C76.88496054 -0.08836331 79.40708221 -0.0935921 81.92918015 -0.10366249 C85.45947506 -0.11602822 88.98924445 -0.10923368 92.51953125 -0.09765625 C94.07525093 -0.10912186 94.07525093 -0.10912186 95.66239929 -0.12081909 C103.83558552 -0.06171394 110.87028052 1.25577857 116.88916016 7.2746582 C121.12950856 13.40597279 122.63115688 18.84120012 121.88916016 26.2746582 C120.22335919 33.39694108 116.69736056 37.21149056 110.82666016 41.5246582 C106.81594315 43.91402153 103.72686487 44.3980977 99.1028595 44.42182922 C98.14273956 44.42898453 97.18261963 44.43613983 96.19340515 44.44351196 C94.62318352 44.44754532 94.62318352 44.44754532 93.02124023 44.45166016 C91.35955811 44.46151695 91.35955811 44.46151695 89.66430664 44.47157288 C85.99576753 44.4912939 82.32726935 44.5029661 78.65869141 44.51293945 C76.77792687 44.51905274 76.77792687 44.51905274 74.8591671 44.52528954 C68.90631312 44.54399596 62.9534721 44.55856247 57.00059587 44.5669015 C50.1464886 44.57666346 43.29270518 44.6029599 36.43871194 44.6434024 C30.48855879 44.67729739 24.53848421 44.68905441 18.58823204 44.6931057 C16.06413261 44.69797123 13.54003663 44.70958418 11.01600075 44.72814369 C7.47842398 44.75253832 3.94168819 44.75156889 0.40405273 44.74462891 C-0.63264053 44.75743896 -1.6693338 44.77024902 -2.73744202 44.78344727 C-9.98223418 44.73180948 -16.5556606 43.63470166 -21.99359417 38.49524403 C-27.70149387 32.17849945 -28.62225354 27.26991774 -28.48974609 18.76293945 C-27.79962189 12.40952798 -24.77131535 8.60941415 -20.17333984 4.3996582 C-13.69561323 -0.09509088 -7.61820015 -0.01812673 0 0 Z " fill="#FFC600" transform="translate(92.11083984375,361.725341796875)"/>
</svg>
