<?xml version="1.0" encoding="UTF-8"?>
<svg version="1.1" xmlns="http://www.w3.org/2000/svg" width="512" height="512">
<path d="M0 0 C9.76473039 7.91956677 18.42606372 17.29224457 27.29150391 26.17797852 C29.02673204 27.9134891 30.76218115 29.64877877 32.49783325 31.38386536 C36.21730456 35.10310994 39.9352528 38.82386965 43.65178299 42.54605293 C49.02509717 47.92753492 54.40120924 53.30621479 59.77798252 58.68424045 C68.5038512 67.4122914 77.22748986 76.14256767 85.94970703 84.87426758 C94.41662607 93.35038216 102.88460707 101.82543349 111.35400391 110.29907227 C111.87708789 110.82241898 112.40017188 111.34576569 112.9391069 111.88497139 C115.56357983 114.51074947 118.18807351 117.13650683 120.81257749 119.76225388 C142.54493386 141.50495714 164.2736254 163.25131938 186 185 C188.94683141 183.67153043 191.01848782 182.22869265 193.29379559 179.94112682 C193.92670409 179.30973362 194.55961259 178.67834042 195.21170014 178.02781409 C196.24140694 176.98527605 196.24140694 176.98527605 197.29191589 175.92167664 C198.02810648 175.18437264 198.76429706 174.44706864 199.52279645 173.6874221 C201.99546655 171.20866635 204.46091168 168.72284552 206.92651367 166.23706055 C208.69527097 164.46119269 210.46449832 162.6857929 212.23416138 160.91082764 C216.04829238 157.08358126 219.85947449 153.25343486 223.66829491 149.42090416 C229.18298511 143.87224823 234.70510398 138.33103157 240.22945038 132.79199121 C249.20237827 123.79516631 258.17229811 114.79535002 267.13891602 105.79223633 C267.67559449 105.25337761 268.21227296 104.71451889 268.76521442 104.15933112 C276.37505875 96.51829045 283.98189903 88.87426616 291.58752391 81.22902588 C292.12268643 80.69107673 292.65784895 80.15312759 293.20922852 79.59887695 C294.01098853 78.79293635 294.01098853 78.79293635 294.82894572 77.97071411 C303.75231412 69.00122098 312.68343977 60.03949827 321.62092 51.08406669 C327.1299499 45.56335014 332.63238735 40.03622237 338.12644056 34.50060055 C342.34159086 30.25470556 346.56712058 26.01929665 350.79654312 21.78761292 C352.52658076 20.05328676 354.25318181 18.31552453 355.97603416 16.57406044 C358.33255068 14.19308171 360.70119731 11.82484559 363.07316589 9.45927429 C363.74848348 8.7709411 364.42380107 8.0826079 365.11958283 7.37341613 C373.48560921 -0.90543592 382.86344009 -5.28626667 394.5625 -6.3125 C405.89236303 -6.09545282 414.99541759 -1.11228793 422.7421875 6.7734375 C428.14059725 13.13872661 431.10850857 21.92214293 431.375 30.25 C429.22425308 51.7574692 413.33086136 63.81580016 398.82202148 78.29150391 C397.0865109 80.02673204 395.35122123 81.76218115 393.61613464 83.49783325 C389.89689006 87.21730456 386.17613035 90.9352528 382.45394707 94.65178299 C377.07246508 100.02509717 371.69378521 105.40120924 366.31575955 110.77798252 C357.5877086 119.5038512 348.85743233 128.22748986 340.12573242 136.94970703 C331.64961784 145.41662607 323.17456651 153.88460707 314.70092773 162.35400391 C314.17758102 162.87708789 313.65423431 163.40017188 313.11502861 163.9391069 C310.48925053 166.56357983 307.86349317 169.18807351 305.23774612 171.81257749 C283.49504286 193.54493386 261.74868062 215.2736254 240 237 C241.32846957 239.94683141 242.77130735 242.01848782 245.05887318 244.29379559 C245.69026638 244.92670409 246.32165958 245.55961259 246.97218591 246.21170014 C247.66721127 246.89817134 248.36223663 247.58464254 249.07832336 248.29191589 C249.81562736 249.02810648 250.55293136 249.76429706 251.3125779 250.52279645 C253.79133365 252.99546655 256.27715448 255.46091168 258.76293945 257.92651367 C260.53880731 259.69527097 262.3142071 261.46449832 264.08917236 263.23416138 C267.91641874 267.04829238 271.74656514 270.85947449 275.57909584 274.66829491 C281.12775177 280.18298511 286.66896843 285.70510398 292.20800879 291.22945038 C301.20483369 300.20237827 310.20464998 309.17229811 319.20776367 318.13891602 C319.74662239 318.67559449 320.28548111 319.21227296 320.84066888 319.76521442 C328.48170955 327.37505875 336.12573384 334.98189903 343.77097412 342.58752391 C344.30892327 343.12268643 344.84687241 343.65784895 345.40112305 344.20922852 C346.20706365 345.01098853 346.20706365 345.01098853 347.02928589 345.82894572 C355.99877902 354.75231412 364.96050173 363.68343977 373.91593331 372.62092 C379.43664986 378.1299499 384.96377763 383.63238735 390.49939945 389.12644056 C394.74529444 393.34159086 398.98070335 397.56712058 403.21238708 401.79654312 C404.94671324 403.52658076 406.68447547 405.25318181 408.42593956 406.97603416 C410.80691829 409.33255068 413.17515441 411.70119731 415.54072571 414.07316589 C416.5732255 415.08614228 416.5732255 415.08614228 417.62658387 416.11958283 C425.90543592 424.48560921 430.28626667 433.86344009 431.3125 445.5625 C431.11985913 455.6183532 427.12921627 464.99393718 420 472 C411.55116155 479.49706289 402.57175612 482.44928437 391.3125 481.9375 C378.09740315 480.4551383 369.26146212 472.57990007 360.20446777 463.44497681 C359.09165554 462.33472785 359.09165554 462.33472785 357.95636225 461.20204961 C355.48892538 458.73788876 353.0286725 456.26668208 350.56835938 453.79541016 C348.79423268 452.02071894 347.01966472 450.24646874 345.24468994 448.47262573 C341.43310912 444.66149933 337.62460111 440.84734406 333.81889343 437.03035355 C328.31657933 431.51173734 322.80870529 425.99869759 317.29948884 420.48697297 C308.35980101 411.54291541 299.42458221 402.59440715 290.4921875 393.64306641 C281.81875954 384.95126092 273.14321897 376.26157303 264.46484375 367.57470703 C263.66150763 366.77058274 263.66150763 366.77058274 262.84194249 365.95021351 C260.15500922 363.26067003 257.46803453 360.57116796 254.78103924 357.88168645 C232.51426664 335.59420384 210.25482802 313.29941001 188 291 C185.05316859 292.32846957 182.98151218 293.77130735 180.70620441 296.05887318 C180.07329591 296.69026638 179.44038741 297.32165958 178.78829986 297.97218591 C178.10182866 298.66721127 177.41535746 299.36223663 176.70808411 300.07832336 C175.97189352 300.81562736 175.23570294 301.55293136 174.47720355 302.3125779 C172.00453345 304.79133365 169.53908832 307.27715448 167.07348633 309.76293945 C165.30472903 311.53880731 163.53550168 313.3142071 161.76583862 315.08917236 C157.95170762 318.91641874 154.14052551 322.74656514 150.33170509 326.57909584 C144.81701489 332.12775177 139.29489602 337.66896843 133.77054962 343.20800879 C124.79762173 352.20483369 115.82770189 361.20464998 106.86108398 370.20776367 C106.32440551 370.74662239 105.78772704 371.28548111 105.23478558 371.84066888 C97.62494125 379.48170955 90.01810097 387.12573384 82.41247609 394.77097412 C81.87731357 395.30892327 81.34215105 395.84687241 80.79077148 396.40112305 C79.98901147 397.20706365 79.98901147 397.20706365 79.17105428 398.02928589 C70.24768588 406.99877902 61.31656023 415.96050173 52.37908 424.91593331 C46.8700501 430.43664986 41.36761265 435.96377763 35.87355944 441.49939945 C31.65840914 445.74529444 27.43287942 449.98070335 23.20345688 454.21238708 C21.47341924 455.94671324 19.74681819 457.68447547 18.02396584 459.42593956 C15.66744932 461.80691829 13.29880269 464.17515441 10.92683411 466.54072571 C10.25151652 467.2290589 9.57619893 467.9173921 8.88041717 468.62658387 C0.51439079 476.90543592 -8.86344009 481.28626667 -20.5625 482.3125 C-30.6118849 482.11998305 -40.00309715 478.13356111 -47 471 C-53.39894661 463.67620563 -56.96293092 455.66293413 -57.3125 445.875 C-55.57629903 424.34610803 -39.24039445 412.09393955 -24.82202148 397.70849609 C-23.0865109 395.97326796 -21.35122123 394.23781885 -19.61613464 392.50216675 C-15.89689006 388.78269544 -12.17613035 385.0647472 -8.45394707 381.34821701 C-3.07246508 375.97490283 2.30621479 370.59879076 7.68424045 365.22201748 C16.4122914 356.4961488 25.14256767 347.77251014 33.87426758 339.05029297 C42.35038216 330.58337393 50.82543349 322.11539293 59.29907227 313.64599609 C59.82241898 313.12291211 60.34576569 312.59982812 60.88497139 312.0608931 C63.51074947 309.43642017 66.13650683 306.81192649 68.76225388 304.18742251 C90.50495714 282.45506614 112.25131938 260.7263746 134 239 C132.67153043 236.05316859 131.22869265 233.98151218 128.94112682 231.70620441 C128.30973362 231.07329591 127.67834042 230.44038741 127.02781409 229.78829986 C125.98527605 228.75859306 125.98527605 228.75859306 124.92167664 227.70808411 C124.18437264 226.97189352 123.44706864 226.23570294 122.6874221 225.47720355 C120.20866635 223.00453345 117.72284552 220.53908832 115.23706055 218.07348633 C113.46119269 216.30472903 111.6857929 214.53550168 109.91082764 212.76583862 C106.08358126 208.95170762 102.25343486 205.14052551 98.42090416 201.33170509 C92.87224823 195.81701489 87.33103157 190.29489602 81.79199121 184.77054962 C72.79516631 175.79762173 63.79535002 166.82770189 54.79223633 157.86108398 C54.25337761 157.32440551 53.71451889 156.78772704 53.15933112 156.23478558 C45.51829045 148.62494125 37.87426616 141.01810097 30.22902588 133.41247609 C29.69107673 132.87731357 29.15312759 132.34215105 28.59887695 131.79077148 C27.79293635 130.98901147 27.79293635 130.98901147 26.97071411 130.17105428 C18.00122098 121.24768588 9.03949827 112.31656023 0.08406669 103.37908 C-5.43664986 97.8700501 -10.96377763 92.36761265 -16.49939945 86.87355944 C-20.74529444 82.65840914 -24.98070335 78.43287942 -29.21238708 74.20345688 C-30.94671324 72.47341924 -32.68447547 70.74681819 -34.42593956 69.02396584 C-36.80691829 66.66744932 -39.17515441 64.29880269 -41.54072571 61.92683411 C-42.2290589 61.25151652 -42.9173921 60.57619893 -43.62658387 59.88041717 C-51.90543592 51.51439079 -56.28626667 42.13655991 -57.3125 30.4375 C-57.11998305 20.3881151 -53.13356111 10.99690285 -46 4 C-32.82072067 -7.51500173 -14.94206928 -9.5607352 0 0 Z " fill="#FEC10F" transform="translate(69,18)"/>
</svg>
